<svg width="1994" height="411" viewBox="0 0 1994 411" fill="none" xmlns="http://www.w3.org/2000/svg">
<path d="M120.201 300.5C106.535 300.5 94.8678 298 85.2012 293C75.5345 288 66.9512 280.75 59.4512 271.25L75.4512 255.25C80.9512 262.917 87.2845 268.75 94.4512 272.75C101.618 276.583 110.451 278.5 120.951 278.5C131.285 278.5 139.535 276.25 145.701 271.75C152.035 267.25 155.201 261.083 155.201 253.25C155.201 246.75 153.701 241.5 150.701 237.5C147.701 233.5 143.618 230.25 138.451 227.75C133.451 225.083 127.951 222.75 121.951 220.75C115.951 218.583 109.951 216.333 103.951 214C97.9512 211.5 92.4512 208.5 87.4512 205C82.4512 201.333 78.3678 196.583 75.2012 190.75C72.2012 184.917 70.7012 177.583 70.7012 168.75C70.7012 158.917 73.0345 150.583 77.7012 143.75C82.5345 136.75 89.0345 131.417 97.2012 127.75C105.535 123.917 114.868 122 125.201 122C136.535 122 146.701 124.25 155.701 128.75C164.701 133.083 172.035 138.833 177.701 146L161.701 162C156.535 156 150.951 151.5 144.951 148.5C139.118 145.5 132.368 144 124.701 144C115.368 144 107.951 146.083 102.451 150.25C96.9512 154.25 94.2012 159.917 94.2012 167.25C94.2012 173.083 95.7012 177.833 98.7012 181.5C101.868 185 105.951 188 110.951 190.5C115.951 193 121.451 195.333 127.451 197.5C133.618 199.5 139.701 201.75 145.701 204.25C151.701 206.75 157.201 209.917 162.201 213.75C167.201 217.583 171.201 222.583 174.201 228.75C177.368 234.75 178.951 242.333 178.951 251.5C178.951 266.833 173.618 278.833 162.951 287.5C152.451 296.167 138.201 300.5 120.201 300.5ZM190.623 298V124.5H214.123V298H190.623ZM302.623 298V124.5H326.123V298H302.623ZM206.623 219V197.5H308.373V219H206.623ZM474.008 300.5C461.674 300.5 450.174 298.25 439.508 293.75C428.841 289.083 419.508 282.667 411.508 274.5C403.508 266.167 397.258 256.583 392.758 245.75C388.424 234.917 386.258 223.333 386.258 211C386.258 198.5 388.424 186.917 392.758 176.25C397.258 165.417 403.424 155.917 411.258 147.75C419.258 139.583 428.508 133.25 439.008 128.75C449.674 124.25 461.174 122 473.508 122C485.841 122 497.258 124.25 507.758 128.75C518.424 133.25 527.758 139.583 535.758 147.75C543.758 155.917 550.008 165.417 554.508 176.25C559.008 187.083 561.258 198.75 561.258 211.25C561.258 223.583 559.008 235.167 554.508 246C550.008 256.833 543.758 266.333 535.758 274.5C527.924 282.667 518.674 289.083 508.008 293.75C497.508 298.25 486.174 300.5 474.008 300.5ZM473.508 278C486.008 278 496.924 275.167 506.258 269.5C515.758 263.667 523.258 255.75 528.758 245.75C534.258 235.583 537.008 224 537.008 211C537.008 201.333 535.424 192.5 532.258 184.5C529.091 176.333 524.674 169.25 519.008 163.25C513.341 157.25 506.674 152.667 499.008 149.5C491.341 146.167 482.841 144.5 473.508 144.5C461.174 144.5 450.258 147.333 440.758 153C431.424 158.667 424.008 166.5 418.508 176.5C413.174 186.5 410.508 198 410.508 211C410.508 220.667 412.008 229.667 415.008 238C418.174 246.167 422.508 253.25 428.008 259.25C433.674 265.083 440.341 269.667 448.008 273C455.841 276.333 464.341 278 473.508 278ZM606.799 298V129.5H630.299V298H606.799ZM547.799 146V124.5H689.049V146H547.799Z" fill="black"/>
<path d="M830.2 199.3C830.2 205.967 828.2 211.167 824.2 214.9C820.2 218.633 815.067 221.167 808.8 222.5V223.3C815.467 224.233 821.267 226.633 826.2 230.5C831.133 234.233 833.6 240.1 833.6 248.1C833.6 252.633 832.733 256.833 831 260.7C829.4 264.567 826.867 267.9 823.4 270.7C819.933 273.5 815.467 275.7 810 277.3C804.533 278.767 797.933 279.5 790.2 279.5H744V172.3H790C797.6 172.3 804.4 173.167 810.4 174.9C816.533 176.5 821.333 179.3 824.8 183.3C828.4 187.167 830.2 192.5 830.2 199.3ZM815.4 248.1C815.4 241.967 813.067 237.567 808.4 234.9C803.733 232.233 796.867 230.9 787.8 230.9H761.6V265.3H788.2C797 265.3 803.733 264.033 808.4 261.5C813.067 258.833 815.4 254.367 815.4 248.1ZM812.4 201.5C812.4 196.433 810.533 192.767 806.8 190.5C803.2 188.1 797.267 186.9 789 186.9H761.6V216.3H785.8C794.467 216.3 801.067 215.1 805.6 212.7C810.133 210.3 812.4 206.567 812.4 201.5ZM893.834 170.5C906.901 170.5 916.568 173.367 922.834 179.1C929.101 184.833 932.234 193.967 932.234 206.5V279.5H919.434L916.034 264.3H915.234C912.168 268.167 908.968 271.433 905.634 274.1C902.434 276.633 898.701 278.5 894.434 279.7C890.301 280.9 885.234 281.5 879.234 281.5C872.834 281.5 867.034 280.367 861.834 278.1C856.768 275.833 852.768 272.367 849.834 267.7C846.901 262.9 845.434 256.9 845.434 249.7C845.434 239.033 849.634 230.833 858.034 225.1C866.434 219.233 879.368 216.033 896.834 215.5L915.034 214.9V208.5C915.034 199.567 913.101 193.367 909.234 189.9C905.368 186.433 899.901 184.7 892.834 184.7C887.234 184.7 881.901 185.567 876.834 187.3C871.768 188.9 867.034 190.767 862.634 192.9L857.234 179.7C861.901 177.167 867.434 175.033 873.834 173.3C880.234 171.433 886.901 170.5 893.834 170.5ZM899.034 227.7C885.701 228.233 876.434 230.367 871.234 234.1C866.168 237.833 863.634 243.1 863.634 249.9C863.634 255.9 865.434 260.3 869.034 263.1C872.768 265.9 877.501 267.3 883.234 267.3C892.301 267.3 899.834 264.833 905.834 259.9C911.834 254.833 914.834 247.1 914.834 236.7V227.1L899.034 227.7ZM1046.14 127.9C1045.61 134.567 1043.94 140.167 1041.14 144.7C1038.48 149.233 1034.48 152.633 1029.14 154.9C1023.81 157.167 1016.88 158.3 1008.34 158.3C999.677 158.3 992.677 157.167 987.344 154.9C982.144 152.633 978.344 149.3 975.944 144.9C973.544 140.367 972.077 134.7 971.544 127.9H987.944C988.61 135.1 990.477 139.967 993.544 142.5C996.744 144.9 1001.81 146.1 1008.74 146.1C1014.88 146.1 1019.68 144.833 1023.14 142.3C1026.74 139.633 1028.88 134.833 1029.54 127.9H1046.14ZM975.944 237.7C975.944 238.9 975.877 240.633 975.744 242.9C975.744 245.033 975.677 247.367 975.544 249.9C975.41 252.3 975.277 254.633 975.144 256.9C975.01 259.033 974.877 260.767 974.744 262.1L1032.14 172.3H1053.74V279.5H1037.34V216.3C1037.34 214.167 1037.34 211.367 1037.34 207.9C1037.48 204.433 1037.61 201.033 1037.74 197.7C1037.88 194.233 1038.01 191.633 1038.14 189.9L981.144 279.5H959.344V172.3H975.944V237.7ZM1076.26 215.1C1076.26 199.5 1077.79 186.233 1080.86 175.3C1084.06 164.233 1088.93 155.433 1095.46 148.9C1102.13 142.233 1110.66 137.767 1121.06 135.5C1129.73 133.633 1138.19 131.967 1146.46 130.5C1154.73 129.033 1162.46 127.7 1169.66 126.5L1172.66 141.9C1169.19 142.433 1165.33 143.1 1161.06 143.9C1156.79 144.567 1152.46 145.3 1148.06 146.1C1143.66 146.767 1139.39 147.5 1135.26 148.3C1131.26 148.967 1127.73 149.633 1124.66 150.3C1120.26 151.233 1116.33 152.833 1112.86 155.1C1109.39 157.233 1106.39 160.167 1103.86 163.9C1101.46 167.633 1099.53 172.233 1098.06 177.7C1096.59 183.167 1095.73 189.633 1095.46 197.1H1096.66C1098.53 194.567 1101.06 191.967 1104.26 189.3C1107.59 186.633 1111.53 184.367 1116.06 182.5C1120.73 180.633 1125.99 179.7 1131.86 179.7C1141.19 179.7 1148.93 181.767 1155.06 185.9C1161.33 189.9 1165.99 195.5 1169.06 202.7C1172.26 209.9 1173.86 218.3 1173.86 227.9C1173.86 239.767 1171.79 249.7 1167.66 257.7C1163.53 265.7 1157.79 271.7 1150.46 275.7C1143.13 279.567 1134.59 281.5 1124.86 281.5C1117.53 281.5 1110.86 280.1 1104.86 277.3C1098.86 274.367 1093.73 270.1 1089.46 264.5C1085.19 258.9 1081.93 251.967 1079.66 243.7C1077.39 235.433 1076.26 225.9 1076.26 215.1ZM1126.26 266.9C1132.13 266.9 1137.19 265.7 1141.46 263.3C1145.86 260.9 1149.26 256.967 1151.66 251.5C1154.06 246.033 1155.26 238.767 1155.26 229.7C1155.26 218.767 1153.19 210.167 1149.06 203.9C1145.06 197.5 1138.39 194.3 1129.06 194.3C1123.19 194.3 1117.86 195.633 1113.06 198.3C1108.26 200.833 1104.26 203.767 1101.06 207.1C1097.86 210.433 1095.59 213.233 1094.26 215.5C1094.26 222.033 1094.73 228.367 1095.66 234.5C1096.59 240.633 1098.19 246.167 1100.46 251.1C1102.86 255.9 1106.13 259.767 1110.26 262.7C1114.53 265.5 1119.86 266.9 1126.26 266.9ZM1191.79 237.1V220.1H1257.59V237.1H1191.79ZM1361.37 172.3V264.7H1376.97V316.7H1359.97V279.5H1285.37V316.7H1268.57V264.7H1277.17C1283.31 256.167 1288.37 246.9 1292.37 236.9C1296.51 226.767 1299.57 216.233 1301.57 205.3C1303.71 194.233 1304.84 183.233 1304.97 172.3H1361.37ZM1320.57 186.1C1320.04 195.167 1318.64 204.567 1316.37 214.3C1314.11 223.9 1311.17 233.1 1307.57 241.9C1304.11 250.7 1300.04 258.3 1295.37 264.7H1344.37V186.1H1320.57ZM1408.58 237.7C1408.58 238.9 1408.52 240.633 1408.38 242.9C1408.38 245.033 1408.32 247.367 1408.18 249.9C1408.05 252.3 1407.92 254.633 1407.78 256.9C1407.65 259.033 1407.52 260.767 1407.38 262.1L1464.78 172.3H1486.38V279.5H1469.98V216.3C1469.98 214.167 1469.98 211.367 1469.98 207.9C1470.12 204.433 1470.25 201.033 1470.38 197.7C1470.52 194.233 1470.65 191.633 1470.78 189.9L1413.78 279.5H1391.98V172.3H1408.58V237.7ZM1542.7 170.3C1550.83 170.3 1557.9 171.433 1563.9 173.7C1569.9 175.833 1574.57 179.033 1577.9 183.3C1581.23 187.433 1582.9 192.5 1582.9 198.5C1582.9 205.033 1581.1 210.233 1577.5 214.1C1573.9 217.833 1568.97 220.567 1562.7 222.3V223.1C1566.97 224.3 1570.9 225.967 1574.5 228.1C1578.1 230.233 1580.97 233.033 1583.1 236.5C1585.37 239.967 1586.5 244.433 1586.5 249.9C1586.5 255.767 1584.83 261.1 1581.5 265.9C1578.3 270.7 1573.3 274.5 1566.5 277.3C1559.83 280.1 1551.23 281.5 1540.7 281.5C1535.63 281.5 1530.77 281.233 1526.1 280.7C1521.57 280.167 1517.43 279.367 1513.7 278.3C1510.1 277.233 1506.9 275.967 1504.1 274.5V258.7C1508.63 260.833 1513.97 262.767 1520.1 264.5C1526.37 266.233 1533.17 267.1 1540.5 267.1C1545.83 267.1 1550.63 266.5 1554.9 265.3C1559.3 264.1 1562.77 262.233 1565.3 259.7C1567.83 257.033 1569.1 253.433 1569.1 248.9C1569.1 244.767 1567.97 241.433 1565.7 238.9C1563.43 236.233 1560.03 234.233 1555.5 232.9C1551.1 231.567 1545.43 230.9 1538.5 230.9H1524.1V216.5H1535.7C1544.9 216.5 1552.23 215.3 1557.7 212.9C1563.3 210.367 1566.1 206.1 1566.1 200.1C1566.1 195.033 1563.97 191.233 1559.7 188.7C1555.57 186.167 1549.57 184.9 1541.7 184.9C1535.83 184.9 1530.63 185.5 1526.1 186.7C1521.7 187.767 1516.83 189.433 1511.5 191.7L1505.3 177.7C1511.03 175.167 1517.03 173.3 1523.3 172.1C1529.57 170.9 1536.03 170.3 1542.7 170.3ZM1647.15 170.5C1660.21 170.5 1669.88 173.367 1676.15 179.1C1682.41 184.833 1685.55 193.967 1685.55 206.5V279.5H1672.75L1669.35 264.3H1668.55C1665.48 268.167 1662.28 271.433 1658.95 274.1C1655.75 276.633 1652.01 278.5 1647.75 279.7C1643.61 280.9 1638.55 281.5 1632.55 281.5C1626.15 281.5 1620.35 280.367 1615.15 278.1C1610.08 275.833 1606.08 272.367 1603.15 267.7C1600.21 262.9 1598.75 256.9 1598.75 249.7C1598.75 239.033 1602.95 230.833 1611.35 225.1C1619.75 219.233 1632.68 216.033 1650.15 215.5L1668.35 214.9V208.5C1668.35 199.567 1666.41 193.367 1662.55 189.9C1658.68 186.433 1653.21 184.7 1646.15 184.7C1640.55 184.7 1635.21 185.567 1630.15 187.3C1625.08 188.9 1620.35 190.767 1615.95 192.9L1610.55 179.7C1615.21 177.167 1620.75 175.033 1627.15 173.3C1633.55 171.433 1640.21 170.5 1647.15 170.5ZM1652.35 227.7C1639.01 228.233 1629.75 230.367 1624.55 234.1C1619.48 237.833 1616.95 243.1 1616.95 249.9C1616.95 255.9 1618.75 260.3 1622.35 263.1C1626.08 265.9 1630.81 267.3 1636.55 267.3C1645.61 267.3 1653.15 264.833 1659.15 259.9C1665.15 254.833 1668.15 247.1 1668.15 236.7V227.1L1652.35 227.7ZM1799.46 127.9C1798.92 134.567 1797.26 140.167 1794.46 144.7C1791.79 149.233 1787.79 152.633 1782.46 154.9C1777.12 157.167 1770.19 158.3 1761.66 158.3C1752.99 158.3 1745.99 157.167 1740.66 154.9C1735.46 152.633 1731.66 149.3 1729.26 144.9C1726.86 140.367 1725.39 134.7 1724.86 127.9H1741.26C1741.92 135.1 1743.79 139.967 1746.86 142.5C1750.06 144.9 1755.12 146.1 1762.06 146.1C1768.19 146.1 1772.99 144.833 1776.46 142.3C1780.06 139.633 1782.19 134.833 1782.86 127.9H1799.46ZM1729.26 237.7C1729.26 238.9 1729.19 240.633 1729.06 242.9C1729.06 245.033 1728.99 247.367 1728.86 249.9C1728.72 252.3 1728.59 254.633 1728.46 256.9C1728.32 259.033 1728.19 260.767 1728.06 262.1L1785.46 172.3H1807.06V279.5H1790.66V216.3C1790.66 214.167 1790.66 211.367 1790.66 207.9C1790.79 204.433 1790.92 201.033 1791.06 197.7C1791.19 194.233 1791.32 191.633 1791.46 189.9L1734.46 279.5H1712.66V172.3H1729.26V237.7ZM1852.77 172.3V216.9H1910.97V172.3H1928.57V279.5H1910.97V231.7H1852.77V279.5H1835.17V172.3H1852.77Z" fill="black"/>
<path d="M357.852 254C354.118 254 350.985 252.733 348.452 250.2C346.052 247.533 344.852 244.467 344.852 241C344.852 237.133 346.052 234 348.452 231.6C350.985 229.067 354.118 227.8 357.852 227.8C361.585 227.8 364.652 229.067 367.052 231.6C369.585 234 370.852 237.133 370.852 241C370.852 244.467 369.585 247.533 367.052 250.2C364.652 252.733 361.585 254 357.852 254ZM357.852 191.6C354.118 191.6 350.985 190.333 348.452 187.8C346.052 185.267 344.852 182.2 344.852 178.6C344.852 174.733 346.052 171.6 348.452 169.2C350.985 166.667 354.118 165.4 357.852 165.4C361.585 165.4 364.652 166.667 367.052 169.2C369.585 171.6 370.852 174.733 370.852 178.6C370.852 182.2 369.585 185.267 367.052 187.8C364.652 190.333 361.585 191.6 357.852 191.6Z" fill="black"/>
</svg>
